<svg width="36" height="36" viewBox="0 0 36 36" fill="none" xmlns="http://www.w3.org/2000/svg">
<path d="M17.9993 10.5C8.84112 10.5 1.5 14.1604 1.5 18.7495C1.5 23.3117 8.90176 27 17.9994 27C27.0977 27 34.5 23.2989 34.5 18.7495C34.4998 14.2011 27.0977 10.5 17.9993 10.5ZM34.399 18.1125C34.4049 18.1528 34.409 18.1935 34.4143 18.2326C34.4099 18.1937 34.4039 18.1533 34.399 18.1125Z" fill="#C9C9CA"/>
<path d="M17.9999 10.8296C9.02389 10.8296 1.75287 14.3674 1.75287 18.7455C1.75287 23.1214 9.02389 26.6616 17.9999 26.6616C26.9771 26.6616 34.2463 23.1214 34.2463 18.7455C34.2463 14.3677 26.977 10.8296 17.9999 10.8296Z" fill="url(#paint0_radial_3885_17764)"/>
<path d="M18.0737 12.4897C25.705 12.4897 32.0063 14.9757 32.9689 18.1934V18.1928C32.3259 14.8077 25.8699 12.1484 17.9986 12.1484C9.70168 12.1484 2.97632 15.1025 2.97632 18.7481C2.97632 19.0452 3.02134 19.3371 3.10729 19.6239C3.07004 19.4369 3.05107 19.2442 3.05087 19.0507C3.05109 15.4276 9.77669 12.4897 18.0737 12.4897Z" fill="url(#paint1_linear_3885_17764)"/>
<path d="M33.4676 17.9229C33.5333 18.1894 33.5669 18.4681 33.5671 18.7486C33.5671 22.7397 26.5971 25.9747 17.9985 25.9747C10.3464 25.9747 3.98451 23.4119 2.6756 20.0374C3.66877 23.5447 10.1744 26.2542 18.0606 26.2657H18.1559C26.732 26.2545 33.6771 23.0522 33.6771 19.101C33.6773 18.7002 33.6056 18.3056 33.4676 17.9229Z" fill="url(#paint2_linear_3885_17764)"/>
<path d="M20.9945 19.8597C20.9602 19.7436 20.9538 19.6132 20.9735 19.4835C20.9805 19.4375 20.9359 19.3961 20.8994 19.4461C20.5507 19.9308 20.5248 20.5578 20.7532 20.8393C20.8347 20.9405 20.9286 20.986 21.0286 20.9945C20.8798 20.7428 20.8095 20.2493 20.9945 19.8597Z" fill="url(#paint3_linear_3885_17764)"/>
<path d="M24.5267 20.7936H24.5272C24.545 20.7477 24.5627 20.6992 24.5818 20.6473C24.5963 20.6073 24.5891 20.596 24.5767 20.5893C24.5409 20.5722 24.5038 20.5355 24.4987 20.4977C24.4963 20.4909 24.4961 20.4843 24.4956 20.4766L24.4961 20.4807C24.5006 20.5538 24.5151 20.6915 24.5267 20.7936Z" fill="url(#paint4_linear_3885_17764)"/>
<path d="M24.9227 18.8945C25.0391 19.0433 25.1101 19.2238 25.1233 19.3897C25.1285 19.4683 25.1734 19.477 25.2101 19.4084C25.2197 19.3897 25.2306 19.3665 25.2435 19.3403C25.2335 19.3213 25.2224 19.3031 25.2121 19.2852C25.122 19.1469 25.0253 19.0164 24.9227 18.8945Z" fill="url(#paint5_linear_3885_17764)"/>
<path d="M20.0931 18.5889C20.1866 18.7593 20.2303 19.0026 20.2238 19.314C20.2222 19.3947 20.2663 19.3894 20.295 19.3344C20.3114 19.3039 20.3259 19.2768 20.3411 19.249V19.2466C20.2729 18.9673 20.1683 18.6931 20.0931 18.5889Z" fill="url(#paint6_linear_3885_17764)"/>
<path d="M24.4347 19.4127C24.1472 19.2286 23.7086 19.5662 23.3117 20.2175C22.9864 20.7501 22.8111 21.2917 22.805 21.8197C22.8025 22.0079 22.856 22.2404 22.9802 22.3252C23.0188 22.3538 23.0609 22.3732 23.1045 22.3825C23.0905 22.3133 23.0832 22.242 23.0828 22.1704C23.0779 21.6255 23.2049 21.0813 23.531 20.548C23.9251 19.8999 24.3396 19.5769 24.6274 19.7553C24.6126 19.6127 24.557 19.4898 24.4347 19.4127Z" fill="url(#paint7_linear_3885_17764)"/>
<path d="M15.8361 20.4927C16.1391 19.9449 16.4803 19.7378 16.8695 19.5136C16.9208 19.4836 16.9269 19.445 16.9171 19.3845C16.9005 19.2812 16.8465 19.0246 16.8299 18.9629C16.8422 19.0193 16.8313 19.0624 16.7807 19.0875C16.3391 19.3111 15.8964 19.6583 15.5901 20.2053C15.2427 20.826 15.1495 21.5726 15.3816 22.0028C15.4369 22.1034 15.5028 22.178 15.5755 22.2267C15.4505 21.7129 15.5418 21.0241 15.8361 20.4927Z" fill="url(#paint8_linear_3885_17764)"/>
<path d="M18.059 23.7415C18.3576 23.7415 18.7245 23.7415 18.9727 23.7396C19.0097 23.7368 19.036 23.709 19.0554 23.6722C19.4264 22.897 19.8225 22.0561 20.2016 21.2803C20.2847 21.6717 20.3275 21.8538 20.4822 22.0381C20.6396 22.2255 20.7851 22.2748 20.9993 22.2772C21.1939 22.2804 21.3856 22.1767 21.6138 22.0504C21.6908 22.0066 21.7647 21.9538 21.8346 21.8925C21.8346 21.7487 21.8456 21.6042 21.8647 21.4662C21.8663 21.4513 21.8554 21.3557 21.7942 21.4124C21.6672 21.5354 21.5284 21.6349 21.3814 21.7083C21.1712 21.8129 21.0733 21.8521 20.8787 21.8496C20.634 21.8471 20.4134 21.7083 20.2584 21.3855C20.1717 21.2111 20.1358 20.9453 20.1275 20.7501C20.1264 20.7287 20.1054 20.6907 20.0824 20.7399C19.671 21.5783 19.2869 22.3885 18.8786 23.2398C18.8573 23.2799 18.8388 23.3061 18.7965 23.3079C18.5443 23.3079 18.268 23.307 17.9902 23.3091C17.9611 23.3091 17.9402 23.2913 17.9342 23.2643C17.956 23.3942 17.9917 23.6297 18.001 23.6847C18.0072 23.7219 18.028 23.7415 18.059 23.7415Z" fill="url(#paint9_linear_3885_17764)"/>
<path d="M22.0533 23.2773C22.1221 23.4536 22.2766 23.6515 22.3703 23.7137C22.9053 24.0652 23.6693 23.6667 24.16 23.0377C24.1649 23.0291 24.166 23.0285 24.173 23.0183C24.1954 23.1312 24.223 23.2685 24.227 23.2875C24.2604 23.4335 24.3129 23.5662 24.3589 23.6366C24.6946 24.1424 25.4072 23.9122 26.149 23.1467C26.5637 22.7193 26.871 22.2901 27.2477 21.706C27.2628 21.6816 27.2614 21.6458 27.253 21.5911C27.2315 21.464 27.1976 21.2342 27.1787 21.1187C27.1781 21.1379 27.173 21.1565 27.1642 21.1719C26.7711 21.811 26.3364 22.4152 25.9208 22.8426C25.2745 23.5103 24.6294 23.6798 24.3105 23.2518C24.1912 23.0926 24.126 22.8652 24.1181 22.6723C24.1143 22.5678 24.0745 22.5629 24.0369 22.612C23.6559 23.1153 22.9938 23.6725 22.3902 23.2755C22.079 23.0706 21.9167 22.6862 21.8583 22.2632C21.8588 22.2676 21.8599 22.2729 21.8607 22.2776C21.898 22.5774 21.9469 23.0101 22.0533 23.2773Z" fill="url(#paint10_linear_3885_17764)"/>
<path d="M21.787 20.5487C21.9855 20.4053 22.1599 20.1014 22.1383 19.6081C22.1268 19.3627 22.0735 19.1097 21.9874 18.9058C22.0459 19.0546 22.0705 19.2278 22.0497 19.4104C22.0116 19.7287 21.8823 20.0092 21.6624 20.1546C21.476 20.2763 21.2583 20.2549 21.1058 20.0735C21.06 20.0173 21.0236 19.9489 20.9991 19.8726C21.0383 20.1131 21.0726 20.2898 21.1196 20.3845C21.2633 20.6736 21.5123 20.7466 21.787 20.5487Z" fill="url(#paint11_linear_3885_17764)"/>
<path d="M27.6929 16.3839C27.5678 16.6729 25.1509 21.5794 24.9982 22.087C24.9498 22.2476 24.9441 22.3704 24.9932 22.4589C25.0432 22.548 25.1159 22.5819 25.1985 22.58C25.207 22.518 25.2246 22.4483 25.2466 22.3745C25.3994 21.8652 27.6628 17.2787 27.7871 16.9884C27.7973 16.9637 27.7937 16.9358 27.7904 16.9173C27.7831 16.8712 27.7072 16.3836 27.6998 16.3379C27.7018 16.3538 27.6994 16.3702 27.6929 16.3839Z" fill="url(#paint12_linear_3885_17764)"/>
<path d="M17.6619 18.667C17.6689 18.6772 17.6745 18.6874 17.6807 18.6975C17.8261 18.9862 17.9055 19.3925 17.9134 19.8121C17.9221 19.9006 17.9505 19.9027 17.9826 19.8573C18.012 19.8174 18.0408 19.775 18.069 19.7342C18.0265 19.5087 17.9606 19.306 17.8928 19.1104C17.8675 19.0398 17.7572 18.7869 17.6619 18.667Z" fill="url(#paint13_linear_3885_17764)"/>
<path d="M13.7615 23.2525C13.8055 23.2821 13.851 23.2552 13.8729 23.2388C14.0202 23.1382 14.3073 22.8439 14.4309 22.6386C14.4684 22.5919 14.5045 22.6237 14.5164 22.6734C14.5681 22.8916 14.6438 23.0599 14.7286 23.2389C14.8209 23.4384 15.0065 23.6451 15.2469 23.7329C15.5579 23.8492 15.8936 23.8697 16.3349 23.6451C16.6887 23.4645 17.0595 23.0967 17.3446 22.6834C17.6868 22.1881 17.8105 21.8707 17.9402 21.6542C18.1621 21.2879 18.5076 20.6391 18.9918 20.0882C19.1612 19.8951 19.3466 19.7698 19.463 19.8306C19.533 19.5901 19.4998 19.4575 19.4254 19.3936C19.3121 19.2953 19.0855 19.4429 18.8942 19.6374C18.3728 20.1639 17.9348 20.9841 17.713 21.351C17.5821 21.5668 17.4588 21.8853 17.117 22.3802C16.5798 23.1578 15.8675 23.6048 15.1804 23.2961C14.8054 23.128 14.534 22.7258 14.4307 22.2318C14.41 22.1365 14.37 22.1098 14.331 22.1727C14.2201 22.3577 13.9931 22.6293 13.8036 22.8003C13.7828 22.8202 13.7315 22.8606 13.6875 22.8314C13.6478 22.8074 13.5071 22.5424 13.4795 22.4661C13.476 22.4582 13.4737 22.4495 13.4725 22.4405V22.4439C13.522 22.77 13.5282 22.808 13.5951 22.9588C13.6709 23.1251 13.7447 23.2431 13.7615 23.2525Z" fill="url(#paint14_linear_3885_17764)"/>
<path d="M9.61824 20.3222C9.79173 19.8557 10.0359 19.633 10.2759 19.4306C10.3792 19.3433 10.425 19.2588 10.3636 19.0316C10.3462 18.9667 10.3364 18.8499 10.317 18.7466C10.3231 18.8475 10.2857 18.9343 10.2188 18.9808C9.92566 19.1802 9.57276 19.5221 9.39858 19.9884C9.25701 20.3684 9.22829 20.8282 9.44395 21.265C9.46208 21.2998 9.48168 21.3351 9.50334 21.3674H9.50357C9.43426 21.0048 9.50881 20.6141 9.61824 20.3222Z" fill="url(#paint15_linear_3885_17764)"/>
<path d="M12.6199 14.6584C13.6858 14.1896 14.874 14.486 15.8284 14.7584C15.9619 14.6473 16.0787 14.5705 16.1958 14.4849C16.254 14.4442 16.1888 14.3957 16.1707 14.3957C14.9386 14.0873 13.6582 13.6873 12.435 14.2913C11.5872 14.7132 11.2157 15.6095 11.395 16.208C11.4292 16.3221 11.4838 16.4109 11.555 16.4739C11.4952 15.922 11.8055 15.0177 12.6199 14.6584Z" fill="url(#paint16_linear_3885_17764)"/>
<path d="M9.15287 23.248C9.50224 23.5763 9.84626 23.6851 10.2476 23.6946C11.0628 23.7136 11.8075 23.2647 12.5972 22.1962C13.3554 21.1702 14.0116 19.7365 14.6587 18.3156C14.6801 18.2656 14.703 18.2433 14.8114 18.2244C15.2175 18.1577 15.5812 18.1267 15.9398 18.0818C16.0467 18.0685 16.128 18.0554 16.1672 18.1071C16.2967 18.2799 16.4474 18.4378 16.547 18.515C16.6132 18.5161 16.6689 18.5355 16.7077 18.5819C16.7496 18.5746 16.7877 18.5436 16.8125 18.5115C16.859 18.4509 16.8608 18.3799 16.8532 18.3197C16.8371 18.2016 16.8132 17.9689 16.7848 17.9014C16.8044 17.9528 16.7917 18.0254 16.7531 18.0837C16.7247 18.1268 16.6804 18.1677 16.6239 18.1668C16.5773 18.1653 16.5497 18.144 16.4911 18.1011C16.3702 18.015 16.2209 17.8722 16.1205 17.7037C16.0866 17.6471 16.0692 17.6456 15.9837 17.652C15.6002 17.6818 15.0019 17.7584 14.5962 17.8263C14.4984 17.8426 14.4838 17.8671 14.4634 17.9118C13.817 19.3335 13.1269 20.8661 12.3691 21.8922C11.5565 22.9927 10.8806 23.2816 10.1636 23.289C9.33616 23.2968 8.59992 22.6716 8.41321 21.5732V21.5738C8.51409 22.1875 8.81057 22.9259 9.15287 23.248Z" fill="url(#paint17_linear_3885_17764)"/>
<path d="M12.2096 18.4729C12.1915 18.4361 12.1816 18.3933 12.1809 18.3493C12.1725 18.5335 12.2282 18.8044 12.2729 18.8948C12.322 18.9957 12.4603 19.0453 12.5697 18.9365C12.8171 18.6936 13.0404 18.5521 13.2902 18.489C13.3544 18.3718 13.4237 18.242 13.503 18.0961C13.51 18.0847 13.5118 18.0695 13.5089 18.0619C13.5044 18.0487 13.4964 18.0449 13.4804 18.0439C13.1141 18.0575 12.794 18.2035 12.484 18.5125C12.3947 18.5995 12.2659 18.5872 12.2096 18.4729Z" fill="url(#paint18_linear_3885_17764)"/>
<path d="M22.179 15.1432C21.6666 15.5182 21.1312 15.6314 20.5713 15.638C19.2177 15.6527 17.9567 14.9494 16.6522 14.5716C16.654 14.6474 16.6688 14.7384 16.621 14.7865C15.8985 15.4969 15.2452 16.219 14.8075 17.2324C14.7931 17.2561 14.801 17.278 14.8265 17.2756C14.9418 17.2686 15.0534 17.2616 15.1634 17.2535C15.562 16.4209 15.9884 15.9436 16.6395 15.3028C16.6883 15.2536 16.737 15.2194 16.721 15.0341C18.0296 15.4215 19.0247 16.0632 20.7146 16.0692C21.2189 16.0714 21.9299 15.8473 22.3125 15.5404C22.7521 15.1877 22.8691 14.9284 22.8848 14.6544C22.8899 14.5688 22.8729 14.4418 22.8626 14.3762C22.8476 14.2834 22.8378 14.1648 22.818 14.0767C22.8247 14.1125 22.8278 14.1531 22.8253 14.1976C22.8119 14.5129 22.6291 14.8158 22.179 15.1432Z" fill="url(#paint19_linear_3885_17764)"/>
<path d="M16.525 16.319C16.509 16.3393 16.4908 16.3601 16.4729 16.382C16.3438 16.5603 16.3045 16.7964 16.3234 16.975C16.334 17.0476 16.355 17.0618 16.3798 17.0555C16.4054 17.048 16.4305 17.0375 16.4547 17.0242C16.4638 16.9259 16.4947 16.8304 16.5693 16.7429C16.6232 16.6793 16.6908 16.6498 16.7486 16.6626C16.7984 16.531 16.8126 16.3726 16.7519 16.3019C16.6935 16.2347 16.6004 16.2474 16.525 16.319Z" fill="url(#paint20_linear_3885_17764)"/>
<path d="M17.0456 16.9375C16.9215 17.2541 16.7168 17.4228 16.5204 17.5048C16.5204 17.5048 16.4792 17.5172 16.4854 17.5674C16.4902 17.6236 16.6294 17.7413 16.7164 17.8238C16.7291 17.8193 16.748 17.81 16.748 17.81C16.8488 17.7566 17.0168 17.62 17.1139 17.3365C17.1761 17.1537 17.21 17.0102 17.183 16.6963C17.1634 16.4774 17.1302 16.2795 17.0862 16.1772C17.1711 16.4066 17.1373 16.701 17.0456 16.9375Z" fill="url(#paint21_linear_3885_17764)"/>
<path d="M13.409 15.8067C13.0511 16.9287 12.3672 17.8186 11.5341 17.8554C11.0683 17.8762 10.7117 17.5833 10.5222 17.1366C10.6607 17.4701 10.895 17.7625 11.1038 17.9378C11.2843 18.0876 11.5069 18.1711 11.7615 18.1597C12.6296 18.1202 13.2873 17.1663 13.5054 16.3604C13.5637 16.143 13.5182 15.9102 13.4913 15.7527C13.4804 15.6925 13.4654 15.5553 13.4324 15.4575H13.432C13.4566 15.5382 13.4566 15.6571 13.409 15.8067Z" fill="url(#paint22_linear_3885_17764)"/>
<path d="M17.9993 10.5C8.84112 10.5 1.5 14.1604 1.5 18.7495C1.5 23.3117 8.90176 27 17.9994 27C27.0977 27 34.5 23.2989 34.5 18.7495C34.4998 14.2011 27.0977 10.5 17.9993 10.5ZM1.61308 18.8406C1.60977 17.8751 1.92893 16.9159 2.59998 16.0129C4.96202 12.8357 11.1511 10.6883 17.972 10.6512C27.0077 10.6011 34.3709 14.1936 34.3866 18.6596C34.3898 19.6253 34.0517 20.5718 33.3805 21.4741C31.0181 24.6518 24.8481 26.8127 18.0278 26.8489C8.99216 26.8992 1.62835 23.3071 1.61308 18.8406ZM34.399 18.1125C34.4049 18.1528 34.409 18.1935 34.4143 18.2326C34.4099 18.1937 34.4039 18.1533 34.399 18.1125Z" fill="#4B4B4B"/>
<path d="M1.54987 18.7487C1.54987 18.9642 1.5689 19.1783 1.60196 19.3891C1.57646 19.2081 1.56307 19.0245 1.56195 18.8404C1.55876 17.862 1.88681 16.8743 2.56344 15.964C4.93871 12.7692 11.134 10.6195 17.9719 10.5812C18.9194 10.5756 19.8478 10.6109 20.7526 10.6831C19.8361 10.6064 18.9179 10.5679 17.9996 10.5679C8.87799 10.5679 1.54987 14.2152 1.54987 18.7487Z" fill="url(#paint23_linear_3885_17764)"/>
<path d="M33.4173 21.5245C31.0501 24.7071 24.8565 26.8793 18.028 26.9171C17.0831 26.9236 16.1382 26.8893 15.1949 26.8144C16.1062 26.8919 17.0439 26.9311 17.9995 26.9311C27.0692 26.9311 34.4483 23.2387 34.4483 18.7519C34.4483 18.5805 34.4365 18.4107 34.4158 18.2417C34.4308 18.3805 34.4373 18.5205 34.4383 18.6611C34.4423 19.6396 34.0939 20.6142 33.4173 21.5245Z" fill="url(#paint24_linear_3885_17764)"/>
<path d="M17.9986 11.522C9.39948 11.522 2.42859 14.7563 2.42859 18.748C2.42859 22.7391 9.39948 25.974 17.9986 25.974C26.597 25.974 33.567 22.7391 33.567 18.748C33.567 14.7563 26.5969 11.522 17.9986 11.522ZM17.9986 25.3481C9.70166 25.3481 2.9763 22.3939 2.9763 18.7478C2.9763 15.1019 9.70155 12.148 17.9986 12.148C26.296 12.148 33.0206 15.1021 33.0206 18.7478C33.0206 22.394 26.296 25.3481 17.9986 25.3481Z" fill="white"/>
<path d="M27.6929 16.3825C27.7145 16.3322 27.6923 16.2954 27.6446 16.2954C27.3952 16.2954 27.0693 16.2965 26.8106 16.2965C26.7487 16.2965 26.7173 16.3056 26.6881 16.3825C26.5924 16.6271 25.427 18.9555 25.2101 19.4074C25.1734 19.4762 25.1285 19.4674 25.1233 19.3887C25.1019 19.1199 24.9276 18.8103 24.6536 18.6635C24.4445 18.5503 24.2404 18.5299 24.0286 18.5677C23.6453 18.6363 23.304 18.9065 23.0036 19.2101C22.551 19.6691 22.1606 20.2632 21.657 20.7024C21.382 20.9411 21.0051 21.1498 20.7533 20.8385C20.5249 20.5567 20.5512 19.9301 20.8995 19.4454C20.936 19.3954 20.9806 19.4367 20.9736 19.4828C20.9405 19.7027 20.9807 19.9203 21.1055 20.0726C21.2581 20.254 21.4757 20.2756 21.6622 20.1537C21.8824 20.0085 22.0116 19.7273 22.0494 19.4095C22.1078 18.9143 21.8221 18.4784 21.4648 18.4436C21.1749 18.4162 20.8967 18.5509 20.6257 18.8492C20.4903 18.9997 20.4126 19.1099 20.2953 19.3338C20.2663 19.3887 20.2223 19.3943 20.224 19.3134C20.2374 18.6807 20.0412 18.3242 19.6485 18.313C19.3439 18.3025 19.0187 18.5238 18.7649 18.7928C18.487 19.09 18.244 19.4853 17.9828 19.8559C17.9507 19.9013 17.9223 19.8992 17.9136 19.8108C17.9057 19.3909 17.8263 18.9847 17.6809 18.6962C17.6288 18.596 17.5209 18.5463 17.4299 18.6141C17.3878 18.6445 17.2417 18.7345 17.1345 18.8491C17.0822 18.9073 17.0618 18.991 17.0846 19.0987C17.2248 19.7261 17.1941 20.4379 17.0036 21.0402C16.8289 21.5903 16.4888 22.0884 16.0887 22.2559C15.8257 22.367 15.5514 22.3126 15.3819 22.0012C15.1498 21.571 15.2429 20.8244 15.5903 20.2037C15.8966 19.6566 16.3394 19.3095 16.7809 19.0859C16.833 19.0587 16.8439 19.0145 16.8289 18.9556C16.805 18.859 16.7668 18.7273 16.7511 18.6674C16.7107 18.5241 16.5969 18.4999 16.4582 18.5203C16.1374 18.5702 15.848 18.7165 15.562 18.9208C14.8133 19.4555 14.4379 20.4902 14.2731 21.0442C14.1941 21.3106 14.1262 21.476 14.0382 21.6236C13.92 21.8215 13.7722 22.0015 13.501 22.3188C13.4766 22.3482 13.4588 22.4085 13.4792 22.4652C13.5068 22.5415 13.6477 22.8066 13.6872 22.8306C13.7312 22.8598 13.7825 22.8194 13.8034 22.7994C13.9929 22.6284 14.2199 22.3568 14.3308 22.1719C14.3697 22.1089 14.4097 22.1357 14.4305 22.231C14.5338 22.725 14.8052 23.1271 15.1802 23.2952C15.8672 23.6033 16.5794 23.1569 17.1169 22.3793C17.4585 21.8844 17.5818 21.566 17.7128 21.3502C17.9347 20.9832 18.3728 20.1628 18.8939 19.6366C19.0854 19.4423 19.3119 19.2943 19.4253 19.3928C19.5166 19.4718 19.5463 19.6544 19.3993 20.0102C18.8679 21.3052 18.0855 22.8263 17.9416 23.1942C17.9157 23.2583 17.9388 23.3091 17.989 23.3091C18.2669 23.3073 18.5431 23.3082 18.7953 23.3082C18.8376 23.3056 18.8561 23.2796 18.8773 23.2401C19.2856 22.3883 19.6696 21.578 20.0812 20.7401C20.1041 20.6913 20.1253 20.7293 20.1264 20.7501C20.1346 20.9454 20.1708 21.2108 20.2571 21.3856C20.4122 21.7084 20.6328 21.8472 20.8775 21.8496C21.0721 21.8527 21.17 21.8131 21.3802 21.7084C21.5271 21.6349 21.6659 21.5354 21.793 21.4126C21.8542 21.3559 21.8651 21.4515 21.8635 21.4664C21.7694 22.1424 21.8853 22.9438 22.3895 23.2752C22.9931 23.6719 23.6553 23.1147 24.0361 22.6117C24.0736 22.5632 24.1134 22.5678 24.1174 22.6722C24.125 22.8654 24.1907 23.0929 24.3098 23.2516C24.6289 23.6792 25.2738 23.5099 25.9201 22.8426C26.3357 22.415 26.7703 21.811 27.1635 21.1717C27.1773 21.1468 27.1887 21.1065 27.1606 21.067C27.1012 20.9836 27.0146 20.8883 26.9551 20.8144C26.928 20.7843 26.8885 20.793 26.8652 20.8161C26.4629 21.3258 26.1011 21.9086 25.5772 22.3892C25.4007 22.5543 25.1195 22.6867 24.9928 22.4587C24.9436 22.3702 24.9493 22.2469 24.9977 22.0867C25.1509 21.578 27.5679 16.6716 27.6929 16.3825ZM24.4989 20.4967C24.504 20.5344 24.5405 20.5706 24.5769 20.5882C24.5891 20.5949 24.5965 20.6061 24.5818 20.646C24.4795 20.9399 24.3849 21.1088 24.2561 21.3645C24.138 21.6 24.0041 21.7844 23.8429 21.9612C23.5991 22.2301 23.2607 22.5222 22.9808 22.3254C22.8566 22.2399 22.8028 22.008 22.8056 21.8198C22.812 21.2916 22.9872 20.7499 23.3123 20.2173C23.7089 19.566 24.1476 19.2285 24.4353 19.4125C24.7327 19.6019 24.6379 20.0617 24.5047 20.4228C24.4945 20.4502 24.4933 20.4742 24.4989 20.4967Z" fill="white"/>
<path d="M10.1642 23.2901C9.26309 23.2988 8.46974 22.5554 8.37843 21.2707C8.32793 20.5586 8.47885 19.9233 8.78115 19.4003C9.04925 18.9343 9.5036 18.5473 9.88705 18.4524C10.0128 18.4222 10.1806 18.4419 10.2503 18.552C10.3591 18.7212 10.3274 18.9072 10.2191 18.9809C9.92592 19.1803 9.57302 19.5222 9.39885 19.9885C9.25727 20.3685 9.22855 20.8283 9.44421 21.2651C9.80658 21.9932 10.8149 22.0137 11.7527 20.8515C11.9851 20.5668 12.1928 20.2937 12.4046 19.9707C12.8174 19.3404 12.9546 19.1104 13.5038 18.0952C13.5107 18.0838 13.5125 18.0686 13.5096 18.061C13.5051 18.0478 13.4971 18.044 13.4811 18.0431C13.1148 18.0566 12.795 18.2027 12.4847 18.5117C12.3952 18.5985 12.2664 18.5862 12.2101 18.4719C12.1475 18.3424 12.1923 18.1738 12.2956 18.079C12.795 17.616 13.341 17.5315 13.8985 17.4058C13.8982 17.4058 13.9375 17.4079 13.9691 17.3517C14.1978 16.9604 14.3705 16.6072 14.6148 16.2108C14.8607 15.8092 15.1779 15.4411 15.4206 15.1631C15.7592 14.7746 15.9764 14.644 16.197 14.484C16.2553 14.4432 16.19 14.3948 16.1719 14.3948C14.9398 14.0864 13.6593 13.6863 12.436 14.2903C11.5883 14.7123 11.2167 15.6086 11.396 16.207C11.5225 16.6317 11.9417 16.7005 12.3338 16.4449C12.6763 16.2194 12.9669 15.8749 13.1748 15.4476C13.2941 15.2025 13.5458 15.3792 13.4098 15.8054C13.0519 16.9275 12.368 17.8174 11.535 17.8542C10.8256 17.8855 10.368 17.1901 10.3698 16.3318C10.3722 14.6389 11.786 13.5238 13.2709 13.3569C15.0595 13.1603 16.7535 13.7956 18.529 14.0827C19.8898 14.302 21.1945 14.3066 22.5619 13.888C22.7233 13.8412 22.8373 13.9784 22.8261 14.1963C22.8128 14.511 22.6298 14.814 22.1798 15.1417C21.6673 15.5166 21.1319 15.6299 20.5721 15.6364C19.2185 15.6512 17.9575 14.9479 16.653 14.57C16.6548 14.6459 16.6696 14.7369 16.6218 14.7849C15.8993 15.4954 15.2461 16.2175 14.8083 17.2308C14.7939 17.2546 14.8018 17.2764 14.8273 17.274C15.2071 17.2474 15.549 17.2346 15.9033 17.1968C15.9651 17.19 15.9674 17.1696 15.9622 17.1091C15.9311 16.7597 16.0074 16.361 16.2379 16.0866C16.4736 15.805 16.769 15.7731 16.9646 15.9755C17.1873 16.207 17.1676 16.6233 17.0461 16.9355C16.922 17.2521 16.7173 17.4208 16.5209 17.5028C16.5209 17.5028 16.4797 17.5152 16.4859 17.5654C16.4935 17.6447 16.7613 17.8429 16.7842 17.8957C16.8063 17.9454 16.7953 18.0232 16.754 18.0826C16.7256 18.1258 16.6813 18.1667 16.6248 18.1656C16.5782 18.1642 16.5506 18.143 16.492 18.1001C16.3712 18.0138 16.2218 17.8712 16.1214 17.7026C16.0875 17.6461 16.0701 17.6446 15.9846 17.651C15.6011 17.6807 15.0028 17.7574 14.5971 17.8253C14.4993 17.8416 14.4847 17.866 14.4643 17.9107C13.8179 19.3325 13.1278 20.865 12.37 21.8912C11.5571 22.9934 10.8811 23.2822 10.1642 23.2901ZM16.3235 16.975C16.3341 17.0477 16.355 17.0618 16.3799 17.0556C16.5029 17.0228 16.6374 16.8875 16.7174 16.7315C16.7904 16.5894 16.8242 16.3844 16.7519 16.302C16.6875 16.2286 16.5828 16.2499 16.5049 16.3412C16.3507 16.5235 16.3039 16.7817 16.3235 16.975Z" fill="white"/>
<defs>
<radialGradient id="paint0_radial_3885_17764" cx="0" cy="0" r="1" gradientUnits="userSpaceOnUse" gradientTransform="translate(17.8906 37.7212) scale(71.0956 48.1498)">
<stop stop-color="#00082E"/>
<stop offset="0.155" stop-color="#000A30"/>
<stop offset="0.242" stop-color="#010F39"/>
<stop offset="0.312" stop-color="#011946"/>
<stop offset="0.373" stop-color="#02275A"/>
<stop offset="0.414" stop-color="#03346C"/>
<stop offset="0.439" stop-color="#0B4F87"/>
<stop offset="0.48" stop-color="#1676AF"/>
<stop offset="0.513" stop-color="#1C8EC7"/>
<stop offset="0.533" stop-color="#1F97D0"/>
<stop offset="1" stop-color="#1F97D0"/>
</radialGradient>
<linearGradient id="paint1_linear_3885_17764" x1="17.9697" y1="27.1819" x2="17.9697" y2="10.4226" gradientUnits="userSpaceOnUse">
<stop stop-color="#00082E"/>
<stop offset="0.321" stop-color="#010A30"/>
<stop offset="0.501" stop-color="#030F39"/>
<stop offset="0.647" stop-color="#071846"/>
<stop offset="0.773" stop-color="#0D245A"/>
<stop offset="0.809" stop-color="#0F2961"/>
<stop offset="0.839" stop-color="#0B386E"/>
<stop offset="0.896" stop-color="#054E83"/>
<stop offset="0.951" stop-color="#015B90"/>
<stop offset="1" stop-color="#006094"/>
</linearGradient>
<linearGradient id="paint2_linear_3885_17764" x1="3001.71" y1="27.1863" x2="3001.71" y2="10.4117" gradientUnits="userSpaceOnUse">
<stop stop-color="#00082E"/>
<stop offset="0.321" stop-color="#010A30"/>
<stop offset="0.501" stop-color="#030F39"/>
<stop offset="0.647" stop-color="#071846"/>
<stop offset="0.773" stop-color="#0D245A"/>
<stop offset="0.809" stop-color="#0F2961"/>
<stop offset="0.839" stop-color="#0B386E"/>
<stop offset="0.896" stop-color="#054E83"/>
<stop offset="0.951" stop-color="#015B90"/>
<stop offset="1" stop-color="#006094"/>
</linearGradient>
<linearGradient id="paint3_linear_3885_17764" x1="20.8172" y1="24.3398" x2="20.8172" y2="12.5644" gradientUnits="userSpaceOnUse">
<stop stop-color="#00082E"/>
<stop offset="0.321" stop-color="#010A30"/>
<stop offset="0.501" stop-color="#030F39"/>
<stop offset="0.647" stop-color="#071846"/>
<stop offset="0.773" stop-color="#0D245A"/>
<stop offset="0.809" stop-color="#0F2961"/>
<stop offset="0.839" stop-color="#0B386E"/>
<stop offset="0.896" stop-color="#054E83"/>
<stop offset="0.951" stop-color="#015B90"/>
<stop offset="1" stop-color="#006094"/>
</linearGradient>
<linearGradient id="paint4_linear_3885_17764" x1="24.5448" y1="24.3222" x2="24.5448" y2="12.624" gradientUnits="userSpaceOnUse">
<stop stop-color="#00082E"/>
<stop offset="0.321" stop-color="#010A30"/>
<stop offset="0.501" stop-color="#030F39"/>
<stop offset="0.647" stop-color="#071846"/>
<stop offset="0.773" stop-color="#0D245A"/>
<stop offset="0.809" stop-color="#0F2961"/>
<stop offset="0.839" stop-color="#0B386E"/>
<stop offset="0.896" stop-color="#054E83"/>
<stop offset="0.951" stop-color="#015B90"/>
<stop offset="1" stop-color="#006094"/>
</linearGradient>
<linearGradient id="paint5_linear_3885_17764" x1="25.0853" y1="24.2876" x2="25.0853" y2="12.6471" gradientUnits="userSpaceOnUse">
<stop stop-color="#00082E"/>
<stop offset="0.321" stop-color="#010A30"/>
<stop offset="0.501" stop-color="#030F39"/>
<stop offset="0.647" stop-color="#071846"/>
<stop offset="0.773" stop-color="#0D245A"/>
<stop offset="0.809" stop-color="#0F2961"/>
<stop offset="0.839" stop-color="#0B386E"/>
<stop offset="0.896" stop-color="#054E83"/>
<stop offset="0.951" stop-color="#015B90"/>
<stop offset="1" stop-color="#006094"/>
</linearGradient>
<linearGradient id="paint6_linear_3885_17764" x1="20.216" y1="24.3647" x2="20.216" y2="12.5619" gradientUnits="userSpaceOnUse">
<stop stop-color="#00082E"/>
<stop offset="0.321" stop-color="#010A30"/>
<stop offset="0.501" stop-color="#030F39"/>
<stop offset="0.647" stop-color="#071846"/>
<stop offset="0.773" stop-color="#0D245A"/>
<stop offset="0.809" stop-color="#0F2961"/>
<stop offset="0.839" stop-color="#0B386E"/>
<stop offset="0.896" stop-color="#054E83"/>
<stop offset="0.951" stop-color="#015B90"/>
<stop offset="1" stop-color="#006094"/>
</linearGradient>
<linearGradient id="paint7_linear_3885_17764" x1="23.7175" y1="24.3375" x2="23.7175" y2="12.5807" gradientUnits="userSpaceOnUse">
<stop stop-color="#00082E"/>
<stop offset="0.321" stop-color="#010A30"/>
<stop offset="0.501" stop-color="#030F39"/>
<stop offset="0.647" stop-color="#071846"/>
<stop offset="0.773" stop-color="#0D245A"/>
<stop offset="0.809" stop-color="#0F2961"/>
<stop offset="0.839" stop-color="#0B386E"/>
<stop offset="0.896" stop-color="#054E83"/>
<stop offset="0.951" stop-color="#015B90"/>
<stop offset="1" stop-color="#006094"/>
</linearGradient>
<linearGradient id="paint8_linear_3885_17764" x1="16.092" y1="24.3296" x2="16.092" y2="12.5851" gradientUnits="userSpaceOnUse">
<stop stop-color="#00082E"/>
<stop offset="0.321" stop-color="#010A30"/>
<stop offset="0.501" stop-color="#030F39"/>
<stop offset="0.647" stop-color="#071846"/>
<stop offset="0.773" stop-color="#0D245A"/>
<stop offset="0.809" stop-color="#0F2961"/>
<stop offset="0.839" stop-color="#0B386E"/>
<stop offset="0.896" stop-color="#054E83"/>
<stop offset="0.951" stop-color="#015B90"/>
<stop offset="1" stop-color="#006094"/>
</linearGradient>
<linearGradient id="paint9_linear_3885_17764" x1="19.8977" y1="24.338" x2="19.8977" y2="12.5724" gradientUnits="userSpaceOnUse">
<stop stop-color="#00082E"/>
<stop offset="0.321" stop-color="#010A30"/>
<stop offset="0.501" stop-color="#030F39"/>
<stop offset="0.647" stop-color="#071846"/>
<stop offset="0.773" stop-color="#0D245A"/>
<stop offset="0.809" stop-color="#0F2961"/>
<stop offset="0.839" stop-color="#0B386E"/>
<stop offset="0.896" stop-color="#054E83"/>
<stop offset="0.951" stop-color="#015B90"/>
<stop offset="1" stop-color="#006094"/>
</linearGradient>
<linearGradient id="paint10_linear_3885_17764" x1="24.564" y1="24.3654" x2="24.564" y2="12.511" gradientUnits="userSpaceOnUse">
<stop stop-color="#00082E"/>
<stop offset="0.321" stop-color="#010A30"/>
<stop offset="0.501" stop-color="#030F39"/>
<stop offset="0.647" stop-color="#071846"/>
<stop offset="0.773" stop-color="#0D245A"/>
<stop offset="0.809" stop-color="#0F2961"/>
<stop offset="0.839" stop-color="#0B386E"/>
<stop offset="0.896" stop-color="#054E83"/>
<stop offset="0.951" stop-color="#015B90"/>
<stop offset="1" stop-color="#006094"/>
</linearGradient>
<linearGradient id="paint11_linear_3885_17764" x1="21.5673" y1="24.377" x2="21.5673" y2="12.5524" gradientUnits="userSpaceOnUse">
<stop stop-color="#00082E"/>
<stop offset="0.321" stop-color="#010A30"/>
<stop offset="0.501" stop-color="#030F39"/>
<stop offset="0.647" stop-color="#071846"/>
<stop offset="0.773" stop-color="#0D245A"/>
<stop offset="0.809" stop-color="#0F2961"/>
<stop offset="0.839" stop-color="#0B386E"/>
<stop offset="0.896" stop-color="#054E83"/>
<stop offset="0.951" stop-color="#015B90"/>
<stop offset="1" stop-color="#006094"/>
</linearGradient>
<linearGradient id="paint12_linear_3885_17764" x1="26.3741" y1="24.3425" x2="26.3741" y2="12.595" gradientUnits="userSpaceOnUse">
<stop stop-color="#00082E"/>
<stop offset="0.321" stop-color="#010A30"/>
<stop offset="0.501" stop-color="#030F39"/>
<stop offset="0.647" stop-color="#071846"/>
<stop offset="0.773" stop-color="#0D245A"/>
<stop offset="0.809" stop-color="#0F2961"/>
<stop offset="0.839" stop-color="#0B386E"/>
<stop offset="0.896" stop-color="#054E83"/>
<stop offset="0.951" stop-color="#015B90"/>
<stop offset="1" stop-color="#006094"/>
</linearGradient>
<linearGradient id="paint13_linear_3885_17764" x1="17.8664" y1="24.349" x2="17.8664" y2="12.5703" gradientUnits="userSpaceOnUse">
<stop stop-color="#00082E"/>
<stop offset="0.321" stop-color="#010A30"/>
<stop offset="0.501" stop-color="#030F39"/>
<stop offset="0.647" stop-color="#071846"/>
<stop offset="0.773" stop-color="#0D245A"/>
<stop offset="0.809" stop-color="#0F2961"/>
<stop offset="0.839" stop-color="#0B386E"/>
<stop offset="0.896" stop-color="#054E83"/>
<stop offset="0.951" stop-color="#015B90"/>
<stop offset="1" stop-color="#006094"/>
</linearGradient>
<linearGradient id="paint14_linear_3885_17764" x1="16.4909" y1="24.3397" x2="16.4909" y2="12.5906" gradientUnits="userSpaceOnUse">
<stop stop-color="#00082E"/>
<stop offset="0.321" stop-color="#010A30"/>
<stop offset="0.501" stop-color="#030F39"/>
<stop offset="0.647" stop-color="#071846"/>
<stop offset="0.773" stop-color="#0D245A"/>
<stop offset="0.809" stop-color="#0F2961"/>
<stop offset="0.839" stop-color="#0B386E"/>
<stop offset="0.896" stop-color="#054E83"/>
<stop offset="0.951" stop-color="#015B90"/>
<stop offset="1" stop-color="#006094"/>
</linearGradient>
<linearGradient id="paint15_linear_3885_17764" x1="9.838" y1="24.3432" x2="9.838" y2="12.5859" gradientUnits="userSpaceOnUse">
<stop stop-color="#00082E"/>
<stop offset="0.321" stop-color="#010A30"/>
<stop offset="0.501" stop-color="#030F39"/>
<stop offset="0.647" stop-color="#071846"/>
<stop offset="0.773" stop-color="#0D245A"/>
<stop offset="0.809" stop-color="#0F2961"/>
<stop offset="0.839" stop-color="#0B386E"/>
<stop offset="0.896" stop-color="#054E83"/>
<stop offset="0.951" stop-color="#015B90"/>
<stop offset="1" stop-color="#006094"/>
</linearGradient>
<linearGradient id="paint16_linear_3885_17764" x1="13.7852" y1="24.4105" x2="13.7852" y2="12.5418" gradientUnits="userSpaceOnUse">
<stop stop-color="#00082E"/>
<stop offset="0.321" stop-color="#010A30"/>
<stop offset="0.501" stop-color="#030F39"/>
<stop offset="0.647" stop-color="#071846"/>
<stop offset="0.773" stop-color="#0D245A"/>
<stop offset="0.809" stop-color="#0F2961"/>
<stop offset="0.839" stop-color="#0B386E"/>
<stop offset="0.896" stop-color="#054E83"/>
<stop offset="0.951" stop-color="#015B90"/>
<stop offset="1" stop-color="#006094"/>
</linearGradient>
<linearGradient id="paint17_linear_3885_17764" x1="12.6347" y1="24.3408" x2="12.6347" y2="12.5806" gradientUnits="userSpaceOnUse">
<stop stop-color="#00082E"/>
<stop offset="0.321" stop-color="#010A30"/>
<stop offset="0.501" stop-color="#030F39"/>
<stop offset="0.647" stop-color="#071846"/>
<stop offset="0.773" stop-color="#0D245A"/>
<stop offset="0.809" stop-color="#0F2961"/>
<stop offset="0.839" stop-color="#0B386E"/>
<stop offset="0.896" stop-color="#054E83"/>
<stop offset="0.951" stop-color="#015B90"/>
<stop offset="1" stop-color="#006094"/>
</linearGradient>
<linearGradient id="paint18_linear_3885_17764" x1="12.8457" y1="24.3694" x2="12.8457" y2="12.5682" gradientUnits="userSpaceOnUse">
<stop stop-color="#00082E"/>
<stop offset="0.321" stop-color="#010A30"/>
<stop offset="0.501" stop-color="#030F39"/>
<stop offset="0.647" stop-color="#071846"/>
<stop offset="0.773" stop-color="#0D245A"/>
<stop offset="0.809" stop-color="#0F2961"/>
<stop offset="0.839" stop-color="#0B386E"/>
<stop offset="0.896" stop-color="#054E83"/>
<stop offset="0.951" stop-color="#015B90"/>
<stop offset="1" stop-color="#006094"/>
</linearGradient>
<linearGradient id="paint19_linear_3885_17764" x1="18.8448" y1="24.349" x2="18.8448" y2="12.5806" gradientUnits="userSpaceOnUse">
<stop stop-color="#00082E"/>
<stop offset="0.321" stop-color="#010A30"/>
<stop offset="0.501" stop-color="#030F39"/>
<stop offset="0.647" stop-color="#071846"/>
<stop offset="0.773" stop-color="#0D245A"/>
<stop offset="0.809" stop-color="#0F2961"/>
<stop offset="0.839" stop-color="#0B386E"/>
<stop offset="0.896" stop-color="#054E83"/>
<stop offset="0.951" stop-color="#015B90"/>
<stop offset="1" stop-color="#006094"/>
</linearGradient>
<linearGradient id="paint20_linear_3885_17764" x1="16.5523" y1="24.3514" x2="16.5523" y2="12.578" gradientUnits="userSpaceOnUse">
<stop stop-color="#00082E"/>
<stop offset="0.321" stop-color="#010A30"/>
<stop offset="0.501" stop-color="#030F39"/>
<stop offset="0.647" stop-color="#071846"/>
<stop offset="0.773" stop-color="#0D245A"/>
<stop offset="0.809" stop-color="#0F2961"/>
<stop offset="0.839" stop-color="#0B386E"/>
<stop offset="0.896" stop-color="#054E83"/>
<stop offset="0.951" stop-color="#015B90"/>
<stop offset="1" stop-color="#006094"/>
</linearGradient>
<linearGradient id="paint21_linear_3885_17764" x1="16.8425" y1="24.3426" x2="16.8425" y2="12.5872" gradientUnits="userSpaceOnUse">
<stop stop-color="#00082E"/>
<stop offset="0.321" stop-color="#010A30"/>
<stop offset="0.501" stop-color="#030F39"/>
<stop offset="0.647" stop-color="#071846"/>
<stop offset="0.773" stop-color="#0D245A"/>
<stop offset="0.809" stop-color="#0F2961"/>
<stop offset="0.839" stop-color="#0B386E"/>
<stop offset="0.896" stop-color="#054E83"/>
<stop offset="0.951" stop-color="#015B90"/>
<stop offset="1" stop-color="#006094"/>
</linearGradient>
<linearGradient id="paint22_linear_3885_17764" x1="12.0298" y1="24.3657" x2="12.0298" y2="12.5824" gradientUnits="userSpaceOnUse">
<stop stop-color="#00082E"/>
<stop offset="0.321" stop-color="#010A30"/>
<stop offset="0.501" stop-color="#030F39"/>
<stop offset="0.647" stop-color="#071846"/>
<stop offset="0.773" stop-color="#0D245A"/>
<stop offset="0.809" stop-color="#0F2961"/>
<stop offset="0.839" stop-color="#0B386E"/>
<stop offset="0.896" stop-color="#054E83"/>
<stop offset="0.951" stop-color="#015B90"/>
<stop offset="1" stop-color="#006094"/>
</linearGradient>
<linearGradient id="paint23_linear_3885_17764" x1="14.385" y1="30.9478" x2="7.94054" y2="12.911" gradientUnits="userSpaceOnUse">
<stop stop-color="#A5A5A6"/>
<stop offset="0.35" stop-color="#D7D7D7"/>
<stop offset="0.65" stop-color="#D7D7D7"/>
<stop offset="1" stop-color="#A5A5A6"/>
</linearGradient>
<linearGradient id="paint24_linear_3885_17764" x1="24.389" y1="20.456" x2="17.9587" y2="2.45874" gradientUnits="userSpaceOnUse">
<stop stop-color="#A5A5A6"/>
<stop offset="0.35" stop-color="#D7D7D7"/>
<stop offset="0.65" stop-color="#D7D7D7"/>
<stop offset="1" stop-color="#A5A5A6"/>
</linearGradient>
</defs>
</svg>
